<svg viewBox="0 0 320 203">
    <path d="M20,139.919 L20,196.415 L-2.84217094e-14,203 L-2.84217094e-14,142.30139 L20,139.919 Z M61,135.035 L61,182.915 L41,189.5 L41,137.418 L61,135.035 Z M102,130.152 L102,169.415 L82,176 L82,132.534 L102,130.152 Z M143,125.268 L143,155.915 L123,162.5 L123,127.651 L143,125.268 Z M284.001813,41.9995605 C305.192451,53.3850041 319.6,75.7599704 319.6,101.5 C319.6,127.24003 305.192451,149.614996 284.001813,161.00044 L284.001813,41.9995605 Z M284,42 L284,161 L263,161 L263,128.18156 L246,122 L246,81 L263,74.8175605 L263,42 L284,42 Z M184,120.385 L184,142.415 L164,149 L164,122.767 L184,120.385 Z M225,115.501 L225,128.915 L205,135.5 L205,117.884 L225,115.501 Z M205,67.5 L225,74.085 L225,87.499 L205,85.116 L205,67.5 Z M164,54 L184,60.585 L184,82.615 L164,80.233 L164,54 Z M123,40.5 L143,47.085 L143,77.731 L123,75.349 L123,40.5 Z M82,27 L102,33.585 L102,72.848 L82,70.465 L82,27 Z M41,13.5 L61,20.085 L61,67.964 L41,65.582 L41,13.5 Z M-2.84217094e-14,0 L20,6.585 L20,63.08 L-2.84217094e-14,60.6986096 L-2.84217094e-14,0 Z"></path>
</svg>