<svg viewBox="0 0 311 197">
    <path d="M275.001813,38.9995605 C296.192451,50.3850041 310.6,72.7599704 310.6,98.5 C310.6,124.24003 296.192451,146.614996 275.001813,158.00044 L275.001813,38.9995605 Z M107.728611,165.510819 L113.960825,151.411298 L0,197 L26.5058978,134.639502 L131.326,113.773 L124.977595,130.210698 L237,113 L237,84 L124.977595,66.7893023 L131.326,83.227 L26.5058978,62.3604975 L0,0 L113.960825,45.5887021 L107.728611,31.4891808 L237,78 L254,71.8175605 L254,39 L275,39 L275,158 L254,158 L254,125.18156 L237,119 L107.728611,165.510819 Z"></path>
</svg>