<svg viewBox="0 0 324 201">
    <path d="M134.95782,58.215863 L177.376618,80.501689 L76.8782959,132.22642 L43.1324192,200.159919 L1.34765625,170.561788 L134.95782,58.215863 Z M183,2.55795385e-13 C196.254834,2.55795385e-13 207,10.745166 207,24 C207,37.254834 196.254834,48 183,48 C180.340122,48 177.781307,47.567299 175.390106,46.7684477 L172.377,52.434 L186.184043,59.6053876 L203.06797,54.5394089 L203.06797,54.5394089 L209.0559,52.7489235 L209.0559,52.7489235 L224.12971,48.2589971 L224.12971,48.2589971 L234.581701,45.1633127 L234.581701,45.1633127 L244.302236,42.3005657 L244.302236,42.3005657 L251.84393,40.0928815 L251.84393,40.0928815 L258.877668,38.0469594 L258.877668,38.0469594 L265.40345,36.1627994 L265.40345,36.1627994 L270.258348,34.7719401 L270.258348,34.7719401 L275.869809,33.1789518 L275.869809,33.1789518 L278.992867,32.3008047 L278.992867,32.3008047 L283.791599,30.9666358 L283.791599,30.9666358 L287.264857,30.0157694 L287.264857,30.0157694 L289.656458,29.3705597 L289.656458,29.3705597 L292.560805,28.6008669 L292.560805,28.6008669 L294.525723,28.0915373 L294.525723,28.0915373 L296.307777,27.6404421 L296.307777,27.6404421 L297.906968,27.2475813 L297.906968,27.2475813 L299.323294,26.9129548 L299.323294,26.9129548 L300.16592,26.7222229 L300.16592,26.7222229 L300.927273,26.5573729 C301.047392,26.5320548 301.164125,26.507815 301.277472,26.4846537 L301.916916,26.3586266 L301.916916,26.3586266 L302.475087,26.2584815 C302.992621,26.1712773 303.388246,26.1228961 303.661961,26.1133377 C314.424953,25.7374857 323.454771,34.1579265 323.830623,44.9209186 C324.202476,55.5694108 315.964197,64.5214081 305.365738,65.0746548 L304.731851,65.102865 L304.731851,65.102865 L304.143146,65.1397845 L304.143146,65.1397845 L303.074626,65.2207285 L303.074626,65.2207285 L301.283223,65.372884 L301.283223,65.372884 L296.782587,65.7894951 L296.782587,65.7894951 L291.404633,66.3138754 L291.404633,66.3138754 L281.893223,67.271651 L281.893223,67.271651 L267.492573,68.7569975 L267.492573,68.7569975 L251.161308,70.4679231 L251.161308,70.4679231 L217.460701,74.0444503 L217.460701,74.0444503 L189.027483,77.0895822 L130.26484,46.9776611 L118.586618,50.2394614 L118.586618,50.2394614 L109.345508,52.8035054 L109.345508,52.8035054 L100.550527,55.2274377 L100.550527,55.2274377 L92.2016744,57.5112583 L92.2016744,57.5112583 L85.8438049,59.2374344 L85.8438049,59.2374344 L81.2627768,60.4732195 L81.2627768,60.4732195 L75.4045714,62.0424705 L75.4045714,62.0424705 L69.8318884,63.52205 L69.8318884,63.52205 L63.2675505,65.2454238 L63.2675505,65.2454238 L59.5430894,66.2121945 L59.5430894,66.2121945 L55.9792347,67.128525 L55.9792347,67.128525 L52.5759864,67.9944153 L52.5759864,67.9944153 L48.2881539,69.0704731 L48.2881539,69.0704731 L45.2596537,69.8186695 L45.2596537,69.8186695 L42.3917597,70.5164258 L42.3917597,70.5164258 L40.5690561,70.9535743 L40.5690561,70.9535743 L37.9688394,71.5672635 L37.9688394,71.5672635 L36.3245873,71.9483673 L36.3245873,71.9483673 L34.7517158,72.3070532 L34.7517158,72.3070532 L32.5262471,72.8030486 L32.5262471,72.8030486 L30.4613847,73.2486038 L30.4613847,73.2486038 L29.1740356,73.5176183 L29.1740356,73.5176183 L27.958067,73.7642149 L27.958067,73.7642149 L26.813479,73.9883936 L26.813479,73.9883936 L25.7402716,74.1901544 L25.7402716,74.1901544 L24.7384448,74.3694974 L24.7384448,74.3694974 L23.8079986,74.5264225 C23.6588726,74.5507085 23.5127208,74.5740604 23.3695432,74.5964783 L22.5461679,74.7197766 C22.2836062,74.7571397 22.0329413,74.7907665 21.7941731,74.820657 L21.113559,74.8991196 L21.113559,74.8991196 L20.5043254,74.9551643 C20.1219632,74.9850548 19.7871881,75 19.5,75 C8.73044738,75 -6.82121026e-13,66.2695526 -6.82121026e-13,55.5 C-6.82121026e-13,44.8450171 8.54568123,36.185985 19.1569912,36.0029561 L19.9608103,35.9941825 L19.9608103,35.9941825 L20.8383045,35.968327 L20.8383045,35.968327 L23.0973905,35.8733081 L23.0973905,35.8733081 L25.7666169,35.741445 L25.7666169,35.741445 L29.1123358,35.5630421 L29.1123358,35.5630421 L37.0031555,35.1150956 L37.0031555,35.1150956 L49.2601373,34.3840314 L49.2601373,34.3840314 L60.8496028,33.6730052 L60.8496028,33.6730052 L86.4460886,32.0673788 L86.4460886,32.0673788 L122.027383,29.7920951 L122.027383,29.7920951 L128.033322,29.4048828 L166.165,49.208 L169.14642,43.6003133 C163.107893,39.3244815 159.131812,32.3283253 159.003215,24.3968839 L159,24 C159,10.745166 169.745166,2.55795385e-13 183,2.55795385e-13 Z"></path>
</svg>